<svg width="24" height="24" viewBox="0 0 24 24" fill="none" xmlns="http://www.w3.org/2000/svg">
<path d="M21.5083 4.16133C19.2423 1.89526 15.5753 1.89526 13.3119 4.16133L6.92887 10.5417L8.29762 11.9104L14.678 5.52741C16.119 4.08634 18.5512 3.93366 20.1423 5.52741C21.736 7.12116 21.5833 9.55062 20.1423 10.9917L13.7592 17.3721L15.1253 18.7381L21.511 12.3604C23.7717 10.0944 23.7717 6.42741 21.5083 4.16133ZM11.1664 19.9703C9.7253 21.4113 7.29316 21.564 5.70208 19.9703C4.10833 18.3765 4.26101 15.9471 5.70208 14.506L8.29762 11.9104L6.92887 10.5417L4.33333 13.1372C2.06726 15.4033 2.06726 19.0703 4.33333 21.3337C6.5994 23.5971 10.2664 23.5997 12.5298 21.3337L15.1253 18.7381L13.7592 17.3721L11.1664 19.9703ZM9.42416 8.04746L8.13984 9.33123L16.2872 17.5776L17.6667 16.2L17.3164 15.781L13.6039 12.0685L9.42416 8.04746Z" fill="white"/>
</svg>
