<svg width="132" height="32" viewBox="0 0 132 32" fill="none" xmlns="http://www.w3.org/2000/svg">
    <path d="M36.33 23V9.32H41.802C42.7773 9.32 43.5658 9.51633 44.1675 9.909C44.7692 10.2953 45.2093 10.783 45.488 11.372C45.7667 11.961 45.906 12.5563 45.906 13.158C45.906 13.9243 45.7318 14.5608 45.3835 15.0675C45.0415 15.5742 44.5697 15.913 43.968 16.084V15.609C44.823 15.7863 45.4627 16.1822 45.887 16.7965C46.3177 17.4108 46.533 18.098 46.533 18.858C46.533 19.675 46.381 20.3938 46.077 21.0145C45.7793 21.6352 45.3233 22.1228 44.709 22.4775C44.0947 22.8258 43.322 23 42.391 23H36.33ZM38.952 20.568H42.125C42.4733 20.568 42.7837 20.4952 43.056 20.3495C43.3283 20.1975 43.5405 19.9885 43.6925 19.7225C43.8508 19.4502 43.93 19.1303 43.93 18.763C43.93 18.44 43.8635 18.1518 43.7305 17.8985C43.5975 17.6452 43.3948 17.4457 43.1225 17.3C42.8565 17.148 42.524 17.072 42.125 17.072H38.952V20.568ZM38.952 14.659H41.764C42.0553 14.659 42.315 14.6083 42.543 14.507C42.771 14.4057 42.9515 14.2505 43.0845 14.0415C43.2175 13.8262 43.284 13.5507 43.284 13.215C43.284 12.797 43.1542 12.4455 42.8945 12.1605C42.6348 11.8755 42.258 11.733 41.764 11.733H38.952V14.659ZM53.1967 23.285C52.1453 23.285 51.2175 23.0602 50.4132 22.6105C49.6152 22.1545 48.9882 21.5307 48.5322 20.739C48.0825 19.941 47.8577 19.029 47.8577 18.003C47.8577 16.882 48.0793 15.9067 48.5227 15.077C48.966 14.2473 49.5772 13.6045 50.3562 13.1485C51.1352 12.6862 52.0313 12.455 53.0447 12.455C54.1213 12.455 55.0365 12.7083 55.7902 13.215C56.5438 13.7217 57.1012 14.4342 57.4622 15.3525C57.8232 16.2708 57.9498 17.3507 57.8422 18.592H55.2867V17.642C55.2867 16.597 55.1188 15.8465 54.7832 15.3905C54.4538 14.9282 53.9123 14.697 53.1587 14.697C52.2783 14.697 51.6292 14.9662 51.2112 15.5045C50.7995 16.0365 50.5937 16.825 50.5937 17.87C50.5937 18.8263 50.7995 19.5673 51.2112 20.093C51.6292 20.6123 52.2403 20.872 53.0447 20.872C53.5513 20.872 53.9852 20.7612 54.3462 20.5395C54.7072 20.3178 54.9827 19.998 55.1727 19.58L57.7567 20.321C57.3703 21.2583 56.7592 21.9867 55.9232 22.506C55.0935 23.0253 54.1847 23.285 53.1967 23.285ZM49.7957 18.592V16.673H56.5977V18.592H49.7957ZM64.1482 23.285C63.2046 23.285 62.3781 23.0475 61.6687 22.5725C60.9594 22.0975 60.4052 21.4515 60.0062 20.6345C59.6136 19.8175 59.4172 18.896 59.4172 17.87C59.4172 16.825 59.6167 15.8972 60.0157 15.0865C60.4211 14.2695 60.9879 13.6267 61.7162 13.158C62.4446 12.6893 63.2996 12.455 64.2812 12.455C65.2566 12.455 66.0767 12.6925 66.7417 13.1675C67.4067 13.6425 67.9102 14.2885 68.2522 15.1055C68.5942 15.9225 68.7652 16.844 68.7652 17.87C68.7652 18.896 68.5911 19.8175 68.2427 20.6345C67.9007 21.4515 67.3877 22.0975 66.7037 22.5725C66.0197 23.0475 65.1679 23.285 64.1482 23.285ZM64.5662 20.986C65.1426 20.986 65.6017 20.8562 65.9437 20.5965C66.2921 20.3368 66.5422 19.9727 66.6942 19.504C66.8462 19.0353 66.9222 18.4907 66.9222 17.87C66.9222 17.2493 66.8462 16.7047 66.6942 16.236C66.5422 15.7673 66.2984 15.4032 65.9627 15.1435C65.6334 14.8838 65.1996 14.754 64.6612 14.754C64.0849 14.754 63.6099 14.8965 63.2362 15.1815C62.8689 15.4602 62.5966 15.837 62.4192 16.312C62.2419 16.7807 62.1532 17.3 62.1532 17.87C62.1532 18.4463 62.2387 18.972 62.4097 19.447C62.5807 19.9157 62.8436 20.2893 63.1982 20.568C63.5529 20.8467 64.0089 20.986 64.5662 20.986ZM66.9222 23V15.97H66.5992V9.32H69.2022V23H66.9222ZM74.7122 23.285C73.9776 23.285 73.3537 23.1457 72.8407 22.867C72.3341 22.582 71.9477 22.2052 71.6817 21.7365C71.4221 21.2615 71.2922 20.739 71.2922 20.169C71.2922 19.694 71.3651 19.2602 71.5107 18.8675C71.6564 18.4748 71.8907 18.1297 72.2137 17.832C72.5431 17.528 72.9832 17.2747 73.5342 17.072C73.9142 16.9327 74.3671 16.8092 74.8927 16.7015C75.4184 16.5938 76.0137 16.4925 76.6787 16.3975C77.3437 16.2962 78.0752 16.1853 78.8732 16.065L77.9422 16.578C77.9422 15.97 77.7966 15.5235 77.5052 15.2385C77.2139 14.9535 76.7262 14.811 76.0422 14.811C75.6622 14.811 75.2664 14.9028 74.8547 15.0865C74.4431 15.2702 74.1549 15.5963 73.9902 16.065L71.6532 15.324C71.9129 14.4753 72.4006 13.785 73.1162 13.253C73.8319 12.721 74.8072 12.455 76.0422 12.455C76.9479 12.455 77.7522 12.5943 78.4552 12.873C79.1582 13.1517 79.6902 13.633 80.0512 14.317C80.2539 14.697 80.3742 15.077 80.4122 15.457C80.4502 15.837 80.4692 16.2613 80.4692 16.73V23H78.2082V20.891L78.5312 21.328C78.0309 22.0183 77.4894 22.5187 76.9067 22.829C76.3304 23.133 75.5989 23.285 74.7122 23.285ZM75.2632 21.252C75.7382 21.252 76.1372 21.1697 76.4602 21.005C76.7896 20.834 77.0492 20.6408 77.2392 20.4255C77.4356 20.2102 77.5686 20.0297 77.6382 19.884C77.7712 19.6053 77.8472 19.2823 77.8662 18.915C77.8916 18.5413 77.9042 18.231 77.9042 17.984L78.6642 18.174C77.8979 18.3007 77.2772 18.4083 76.8022 18.497C76.3272 18.5793 75.9441 18.6553 75.6527 18.725C75.3614 18.7947 75.1049 18.8707 74.8832 18.953C74.6299 19.0543 74.4241 19.1652 74.2657 19.2855C74.1137 19.3995 73.9997 19.5262 73.9237 19.6655C73.8541 19.8048 73.8192 19.96 73.8192 20.131C73.8192 20.3653 73.8762 20.568 73.9902 20.739C74.1106 20.9037 74.2784 21.0303 74.4937 21.119C74.7091 21.2077 74.9656 21.252 75.2632 21.252ZM86.7431 23V9.32H95.6731V11.733H89.3271V14.659H94.5331V17.072H89.3271V20.587H95.6731V23H86.7431ZM97.9501 23V9.32H100.268L104.79 18.402L109.312 9.32H111.63V23H109.217V14.83L105.246 23H104.334L100.363 14.83V23H97.9501ZM114.297 23V9.32H120.073C120.206 9.32 120.383 9.32633 120.605 9.339C120.833 9.34533 121.035 9.36433 121.213 9.396C122.03 9.52267 122.698 9.79183 123.217 10.2035C123.743 10.6152 124.129 11.1345 124.376 11.7615C124.623 12.3822 124.747 13.0757 124.747 13.842C124.747 14.9883 124.462 15.97 123.892 16.787C123.322 17.5977 122.429 18.098 121.213 18.288L120.073 18.364H116.881V23H114.297ZM122.011 23L119.313 17.433L121.973 16.92L124.937 23H122.011ZM116.881 15.951H119.959C120.092 15.951 120.237 15.9447 120.396 15.932C120.554 15.9193 120.7 15.894 120.833 15.856C121.181 15.761 121.45 15.6027 121.64 15.381C121.83 15.153 121.96 14.9028 122.03 14.6305C122.106 14.3518 122.144 14.089 122.144 13.842C122.144 13.595 122.106 13.3353 122.03 13.063C121.96 12.7843 121.83 12.5342 121.64 12.3125C121.45 12.0845 121.181 11.923 120.833 11.828C120.7 11.79 120.554 11.7647 120.396 11.752C120.237 11.7393 120.092 11.733 119.959 11.733H116.881V15.951Z" fill="white"/>
    <path fill-rule="evenodd" clip-rule="evenodd" d="M17 6H13V9.98387H9V14H13V18H17V14H21V9.98387H17V6Z" fill="white"/>
    <path fill-rule="evenodd" clip-rule="evenodd" d="M10 18C10 20.7614 12.2386 23 15 23C17.7614 23 20 20.7614 20 18H24C24 22.9706 19.9706 27 15 27C10.0294 27 6 22.9706 6 18H10Z" fill="white"/>
</svg>
